<mxfile host="app.diagrams.net" modified="2023-06-08T02:56:56.465Z" agent="Mozilla/5.0 (Windows NT 10.0; Win64; x64) AppleWebKit/537.36 (KHTML, like Gecko) Chrome/114.0.0.0 Safari/537.36" etag="gFpZcxCcSM9Mr7OB_bX0" version="21.3.7" type="github">
  <diagram id="C5RBs43oDa-KdzZeNtuy" name="Page-1">
    <mxGraphModel dx="1562" dy="813" grid="1" gridSize="10" guides="1" tooltips="1" connect="1" arrows="1" fold="1" page="1" pageScale="1" pageWidth="827" pageHeight="1169" math="0" shadow="0">
      <root>
        <mxCell id="WIyWlLk6GJQsqaUBKTNV-0" />
        <mxCell id="WIyWlLk6GJQsqaUBKTNV-1" parent="WIyWlLk6GJQsqaUBKTNV-0" />
        <mxCell id="WIyWlLk6GJQsqaUBKTNV-3" value="Customer completes booking" style="rounded=1;whiteSpace=wrap;html=1;fontSize=12;glass=0;strokeWidth=2;shadow=0;absoluteArcSize=1;fillColor=#60a917;fontColor=#ffffff;strokeColor=#2D7600;" parent="WIyWlLk6GJQsqaUBKTNV-1" vertex="1">
          <mxGeometry x="190" y="70" width="110" height="100" as="geometry" />
        </mxCell>
        <mxCell id="DZDIjLRaXIpCxIpOLgWD-2" value="" style="endArrow=classic;html=1;rounded=0;exitX=0.5;exitY=1;exitDx=0;exitDy=0;" edge="1" parent="WIyWlLk6GJQsqaUBKTNV-1" source="WIyWlLk6GJQsqaUBKTNV-3" target="DZDIjLRaXIpCxIpOLgWD-3">
          <mxGeometry width="50" height="50" relative="1" as="geometry">
            <mxPoint x="410" y="460" as="sourcePoint" />
            <mxPoint x="240" y="280" as="targetPoint" />
          </mxGeometry>
        </mxCell>
        <mxCell id="DZDIjLRaXIpCxIpOLgWD-14" style="edgeStyle=orthogonalEdgeStyle;rounded=0;orthogonalLoop=1;jettySize=auto;html=1;exitX=0.5;exitY=1;exitDx=0;exitDy=0;entryX=0.5;entryY=0;entryDx=0;entryDy=0;" edge="1" parent="WIyWlLk6GJQsqaUBKTNV-1" source="DZDIjLRaXIpCxIpOLgWD-3" target="DZDIjLRaXIpCxIpOLgWD-4">
          <mxGeometry relative="1" as="geometry" />
        </mxCell>
        <mxCell id="DZDIjLRaXIpCxIpOLgWD-3" value="Booking sent to server" style="rounded=1;whiteSpace=wrap;html=1;absoluteArcSize=1;arcSize=14;strokeWidth=2;fillColor=#0050ef;fontColor=#ffffff;strokeColor=#001DBC;" vertex="1" parent="WIyWlLk6GJQsqaUBKTNV-1">
          <mxGeometry x="190" y="210" width="110" height="90" as="geometry" />
        </mxCell>
        <mxCell id="DZDIjLRaXIpCxIpOLgWD-15" value="" style="edgeStyle=orthogonalEdgeStyle;rounded=0;orthogonalLoop=1;jettySize=auto;html=1;" edge="1" parent="WIyWlLk6GJQsqaUBKTNV-1" source="DZDIjLRaXIpCxIpOLgWD-4" target="DZDIjLRaXIpCxIpOLgWD-6">
          <mxGeometry relative="1" as="geometry" />
        </mxCell>
        <mxCell id="DZDIjLRaXIpCxIpOLgWD-4" value="Bookings stored in database" style="rounded=1;whiteSpace=wrap;html=1;absoluteArcSize=1;arcSize=14;strokeWidth=2;fillColor=#0050ef;fontColor=#ffffff;strokeColor=#001DBC;" vertex="1" parent="WIyWlLk6GJQsqaUBKTNV-1">
          <mxGeometry x="190" y="330" width="110" height="110" as="geometry" />
        </mxCell>
        <mxCell id="DZDIjLRaXIpCxIpOLgWD-16" style="edgeStyle=orthogonalEdgeStyle;rounded=0;orthogonalLoop=1;jettySize=auto;html=1;exitX=1;exitY=0.5;exitDx=0;exitDy=0;entryX=0.009;entryY=0.379;entryDx=0;entryDy=0;entryPerimeter=0;" edge="1" parent="WIyWlLk6GJQsqaUBKTNV-1" source="DZDIjLRaXIpCxIpOLgWD-6" target="DZDIjLRaXIpCxIpOLgWD-7">
          <mxGeometry relative="1" as="geometry" />
        </mxCell>
        <mxCell id="DZDIjLRaXIpCxIpOLgWD-6" value="" style="shape=datastore;whiteSpace=wrap;html=1;strokeWidth=2;fillColor=#f0a30a;fontColor=#000000;strokeColor=#BD7000;" vertex="1" parent="WIyWlLk6GJQsqaUBKTNV-1">
          <mxGeometry x="190" y="510" width="110" height="100" as="geometry" />
        </mxCell>
        <mxCell id="DZDIjLRaXIpCxIpOLgWD-17" value="" style="edgeStyle=orthogonalEdgeStyle;rounded=0;orthogonalLoop=1;jettySize=auto;html=1;" edge="1" parent="WIyWlLk6GJQsqaUBKTNV-1" source="DZDIjLRaXIpCxIpOLgWD-7" target="DZDIjLRaXIpCxIpOLgWD-9">
          <mxGeometry relative="1" as="geometry" />
        </mxCell>
        <mxCell id="DZDIjLRaXIpCxIpOLgWD-7" value="Bookings populates admin dashboard" style="rounded=1;whiteSpace=wrap;html=1;absoluteArcSize=1;arcSize=14;strokeWidth=2;fillColor=#0050ef;fontColor=#ffffff;strokeColor=#001DBC;" vertex="1" parent="WIyWlLk6GJQsqaUBKTNV-1">
          <mxGeometry x="420" y="150" width="100" height="100" as="geometry" />
        </mxCell>
        <mxCell id="DZDIjLRaXIpCxIpOLgWD-18" value="" style="edgeStyle=orthogonalEdgeStyle;rounded=0;orthogonalLoop=1;jettySize=auto;html=1;" edge="1" parent="WIyWlLk6GJQsqaUBKTNV-1" source="DZDIjLRaXIpCxIpOLgWD-9" target="DZDIjLRaXIpCxIpOLgWD-10">
          <mxGeometry relative="1" as="geometry" />
        </mxCell>
        <mxCell id="DZDIjLRaXIpCxIpOLgWD-19" value="" style="edgeStyle=orthogonalEdgeStyle;rounded=0;orthogonalLoop=1;jettySize=auto;html=1;" edge="1" parent="WIyWlLk6GJQsqaUBKTNV-1" source="DZDIjLRaXIpCxIpOLgWD-9" target="DZDIjLRaXIpCxIpOLgWD-11">
          <mxGeometry relative="1" as="geometry" />
        </mxCell>
        <mxCell id="DZDIjLRaXIpCxIpOLgWD-9" value="Admin &lt;br&gt;approves&lt;br&gt;booking" style="strokeWidth=2;html=1;shape=mxgraph.flowchart.decision;whiteSpace=wrap;fillColor=#e3c800;fontColor=#000000;strokeColor=#B09500;" vertex="1" parent="WIyWlLk6GJQsqaUBKTNV-1">
          <mxGeometry x="420" y="290" width="100" height="100" as="geometry" />
        </mxCell>
        <mxCell id="DZDIjLRaXIpCxIpOLgWD-31" value="" style="edgeStyle=orthogonalEdgeStyle;rounded=0;orthogonalLoop=1;jettySize=auto;html=1;" edge="1" parent="WIyWlLk6GJQsqaUBKTNV-1" source="DZDIjLRaXIpCxIpOLgWD-10" target="DZDIjLRaXIpCxIpOLgWD-30">
          <mxGeometry relative="1" as="geometry" />
        </mxCell>
        <mxCell id="DZDIjLRaXIpCxIpOLgWD-38" value="" style="edgeStyle=orthogonalEdgeStyle;rounded=0;orthogonalLoop=1;jettySize=auto;html=1;" edge="1" parent="WIyWlLk6GJQsqaUBKTNV-1" source="DZDIjLRaXIpCxIpOLgWD-10" target="DZDIjLRaXIpCxIpOLgWD-37">
          <mxGeometry relative="1" as="geometry" />
        </mxCell>
        <mxCell id="DZDIjLRaXIpCxIpOLgWD-10" value="Generate and send customer an invoice&lt;br&gt;email with payment link" style="rounded=1;whiteSpace=wrap;html=1;absoluteArcSize=1;arcSize=14;strokeWidth=2;fillColor=#0050ef;fontColor=#ffffff;strokeColor=#001DBC;" vertex="1" parent="WIyWlLk6GJQsqaUBKTNV-1">
          <mxGeometry x="420" y="440" width="100" height="100" as="geometry" />
        </mxCell>
        <mxCell id="DZDIjLRaXIpCxIpOLgWD-50" value="" style="edgeStyle=orthogonalEdgeStyle;rounded=0;orthogonalLoop=1;jettySize=auto;html=1;" edge="1" parent="WIyWlLk6GJQsqaUBKTNV-1" source="DZDIjLRaXIpCxIpOLgWD-11" target="DZDIjLRaXIpCxIpOLgWD-40">
          <mxGeometry relative="1" as="geometry" />
        </mxCell>
        <mxCell id="DZDIjLRaXIpCxIpOLgWD-11" value="Send customer a rejection email" style="rounded=1;whiteSpace=wrap;html=1;absoluteArcSize=1;arcSize=14;strokeWidth=2;fillColor=#0050ef;fontColor=#ffffff;strokeColor=#001DBC;" vertex="1" parent="WIyWlLk6GJQsqaUBKTNV-1">
          <mxGeometry x="620" y="290" width="100" height="100" as="geometry" />
        </mxCell>
        <mxCell id="DZDIjLRaXIpCxIpOLgWD-20" value="NO&lt;br&gt;" style="text;html=1;align=center;verticalAlign=middle;resizable=0;points=[];autosize=1;strokeColor=none;fillColor=none;" vertex="1" parent="WIyWlLk6GJQsqaUBKTNV-1">
          <mxGeometry x="540" y="298" width="40" height="30" as="geometry" />
        </mxCell>
        <mxCell id="DZDIjLRaXIpCxIpOLgWD-21" value="YES&lt;br&gt;" style="text;html=1;align=center;verticalAlign=middle;resizable=0;points=[];autosize=1;strokeColor=none;fillColor=none;" vertex="1" parent="WIyWlLk6GJQsqaUBKTNV-1">
          <mxGeometry x="465" y="398" width="50" height="30" as="geometry" />
        </mxCell>
        <mxCell id="DZDIjLRaXIpCxIpOLgWD-22" value="&lt;b&gt;Booking Workflow&lt;/b&gt;" style="text;html=1;align=center;verticalAlign=middle;resizable=0;points=[];autosize=1;strokeColor=none;fillColor=none;" vertex="1" parent="WIyWlLk6GJQsqaUBKTNV-1">
          <mxGeometry x="340" y="40" width="130" height="30" as="geometry" />
        </mxCell>
        <mxCell id="DZDIjLRaXIpCxIpOLgWD-24" value="Client" style="text;html=1;align=center;verticalAlign=middle;resizable=0;points=[];autosize=1;strokeColor=#2D7600;fillColor=#60a917;fontColor=#ffffff;" vertex="1" parent="WIyWlLk6GJQsqaUBKTNV-1">
          <mxGeometry x="645" y="78" width="50" height="30" as="geometry" />
        </mxCell>
        <mxCell id="DZDIjLRaXIpCxIpOLgWD-25" value="Server&lt;br&gt;" style="text;html=1;align=center;verticalAlign=middle;resizable=0;points=[];autosize=1;strokeColor=#001DBC;fillColor=#0050ef;fontColor=#ffffff;" vertex="1" parent="WIyWlLk6GJQsqaUBKTNV-1">
          <mxGeometry x="640" y="120" width="60" height="30" as="geometry" />
        </mxCell>
        <mxCell id="DZDIjLRaXIpCxIpOLgWD-34" value="" style="edgeStyle=orthogonalEdgeStyle;rounded=0;orthogonalLoop=1;jettySize=auto;html=1;" edge="1" parent="WIyWlLk6GJQsqaUBKTNV-1" source="DZDIjLRaXIpCxIpOLgWD-26" target="DZDIjLRaXIpCxIpOLgWD-27">
          <mxGeometry relative="1" as="geometry" />
        </mxCell>
        <mxCell id="DZDIjLRaXIpCxIpOLgWD-36" value="" style="edgeStyle=orthogonalEdgeStyle;rounded=0;orthogonalLoop=1;jettySize=auto;html=1;" edge="1" parent="WIyWlLk6GJQsqaUBKTNV-1" source="DZDIjLRaXIpCxIpOLgWD-26" target="DZDIjLRaXIpCxIpOLgWD-28">
          <mxGeometry relative="1" as="geometry" />
        </mxCell>
        <mxCell id="DZDIjLRaXIpCxIpOLgWD-26" value="Customer approves payment" style="strokeWidth=2;html=1;shape=mxgraph.flowchart.decision;whiteSpace=wrap;fillColor=#e3c800;fontColor=#000000;strokeColor=#B09500;" vertex="1" parent="WIyWlLk6GJQsqaUBKTNV-1">
          <mxGeometry x="230" y="810" width="100" height="100" as="geometry" />
        </mxCell>
        <mxCell id="DZDIjLRaXIpCxIpOLgWD-52" value="" style="edgeStyle=orthogonalEdgeStyle;rounded=0;orthogonalLoop=1;jettySize=auto;html=1;" edge="1" parent="WIyWlLk6GJQsqaUBKTNV-1" source="DZDIjLRaXIpCxIpOLgWD-27" target="DZDIjLRaXIpCxIpOLgWD-51">
          <mxGeometry relative="1" as="geometry" />
        </mxCell>
        <mxCell id="DZDIjLRaXIpCxIpOLgWD-27" value="Stripe sends webhook event notifying failiure" style="rounded=1;whiteSpace=wrap;html=1;absoluteArcSize=1;arcSize=14;strokeWidth=2;fillColor=#76608a;fontColor=#ffffff;strokeColor=#432D57;" vertex="1" parent="WIyWlLk6GJQsqaUBKTNV-1">
          <mxGeometry x="400" y="810" width="100" height="100" as="geometry" />
        </mxCell>
        <mxCell id="DZDIjLRaXIpCxIpOLgWD-55" style="edgeStyle=orthogonalEdgeStyle;rounded=0;orthogonalLoop=1;jettySize=auto;html=1;entryX=1;entryY=0.5;entryDx=0;entryDy=0;" edge="1" parent="WIyWlLk6GJQsqaUBKTNV-1" source="DZDIjLRaXIpCxIpOLgWD-28" target="DZDIjLRaXIpCxIpOLgWD-54">
          <mxGeometry relative="1" as="geometry" />
        </mxCell>
        <mxCell id="DZDIjLRaXIpCxIpOLgWD-28" value="Stripe sends webhook event notifying success" style="rounded=1;whiteSpace=wrap;html=1;absoluteArcSize=1;arcSize=14;strokeWidth=2;fillColor=#76608a;fontColor=#ffffff;strokeColor=#432D57;" vertex="1" parent="WIyWlLk6GJQsqaUBKTNV-1">
          <mxGeometry x="230" y="980" width="100" height="100" as="geometry" />
        </mxCell>
        <mxCell id="DZDIjLRaXIpCxIpOLgWD-30" value="Send driver booking info" style="rounded=1;whiteSpace=wrap;html=1;absoluteArcSize=1;arcSize=14;strokeWidth=2;fillColor=#0050ef;fontColor=#ffffff;strokeColor=#001DBC;" vertex="1" parent="WIyWlLk6GJQsqaUBKTNV-1">
          <mxGeometry x="620" y="440" width="100" height="100" as="geometry" />
        </mxCell>
        <mxCell id="DZDIjLRaXIpCxIpOLgWD-39" style="edgeStyle=orthogonalEdgeStyle;rounded=0;orthogonalLoop=1;jettySize=auto;html=1;exitX=0;exitY=0.5;exitDx=0;exitDy=0;entryX=0.5;entryY=1;entryDx=0;entryDy=0;" edge="1" parent="WIyWlLk6GJQsqaUBKTNV-1" source="DZDIjLRaXIpCxIpOLgWD-37" target="DZDIjLRaXIpCxIpOLgWD-6">
          <mxGeometry relative="1" as="geometry" />
        </mxCell>
        <mxCell id="DZDIjLRaXIpCxIpOLgWD-37" value="Set booking status to approved on DB" style="rounded=1;whiteSpace=wrap;html=1;absoluteArcSize=1;arcSize=14;strokeWidth=2;fillColor=#0050ef;fontColor=#ffffff;strokeColor=#001DBC;" vertex="1" parent="WIyWlLk6GJQsqaUBKTNV-1">
          <mxGeometry x="420" y="620" width="100" height="100" as="geometry" />
        </mxCell>
        <mxCell id="DZDIjLRaXIpCxIpOLgWD-46" style="edgeStyle=orthogonalEdgeStyle;rounded=0;orthogonalLoop=1;jettySize=auto;html=1;exitX=0.25;exitY=1;exitDx=0;exitDy=0;" edge="1" parent="WIyWlLk6GJQsqaUBKTNV-1" source="DZDIjLRaXIpCxIpOLgWD-40" target="DZDIjLRaXIpCxIpOLgWD-6">
          <mxGeometry relative="1" as="geometry">
            <Array as="points">
              <mxPoint x="825" y="750" />
              <mxPoint x="213" y="750" />
            </Array>
          </mxGeometry>
        </mxCell>
        <mxCell id="DZDIjLRaXIpCxIpOLgWD-40" value="Set booking status to denied on DB" style="rounded=1;whiteSpace=wrap;html=1;absoluteArcSize=1;arcSize=14;strokeWidth=2;fillColor=#0050ef;fontColor=#ffffff;strokeColor=#001DBC;" vertex="1" parent="WIyWlLk6GJQsqaUBKTNV-1">
          <mxGeometry x="800" y="290" width="100" height="100" as="geometry" />
        </mxCell>
        <mxCell id="DZDIjLRaXIpCxIpOLgWD-53" style="edgeStyle=orthogonalEdgeStyle;rounded=0;orthogonalLoop=1;jettySize=auto;html=1;entryX=0;entryY=0.5;entryDx=0;entryDy=0;" edge="1" parent="WIyWlLk6GJQsqaUBKTNV-1" source="DZDIjLRaXIpCxIpOLgWD-51" target="DZDIjLRaXIpCxIpOLgWD-6">
          <mxGeometry relative="1" as="geometry">
            <Array as="points">
              <mxPoint x="645" y="780" />
              <mxPoint x="160" y="780" />
              <mxPoint x="160" y="560" />
            </Array>
          </mxGeometry>
        </mxCell>
        <mxCell id="DZDIjLRaXIpCxIpOLgWD-51" value="Set booking status to denied on DB" style="rounded=1;whiteSpace=wrap;html=1;absoluteArcSize=1;arcSize=14;strokeWidth=2;fillColor=#0050ef;fontColor=#ffffff;strokeColor=#001DBC;" vertex="1" parent="WIyWlLk6GJQsqaUBKTNV-1">
          <mxGeometry x="595" y="810" width="100" height="100" as="geometry" />
        </mxCell>
        <mxCell id="DZDIjLRaXIpCxIpOLgWD-57" style="edgeStyle=orthogonalEdgeStyle;rounded=0;orthogonalLoop=1;jettySize=auto;html=1;entryX=0.048;entryY=0.094;entryDx=0;entryDy=0;entryPerimeter=0;" edge="1" parent="WIyWlLk6GJQsqaUBKTNV-1" source="DZDIjLRaXIpCxIpOLgWD-54" target="DZDIjLRaXIpCxIpOLgWD-6">
          <mxGeometry relative="1" as="geometry">
            <mxPoint x="110" y="480" as="targetPoint" />
            <Array as="points">
              <mxPoint x="90" y="480" />
              <mxPoint x="195" y="480" />
            </Array>
          </mxGeometry>
        </mxCell>
        <mxCell id="DZDIjLRaXIpCxIpOLgWD-54" value="Set booking status to accepted on DB" style="rounded=1;whiteSpace=wrap;html=1;absoluteArcSize=1;arcSize=14;strokeWidth=2;fillColor=#0050ef;fontColor=#ffffff;strokeColor=#001DBC;" vertex="1" parent="WIyWlLk6GJQsqaUBKTNV-1">
          <mxGeometry x="60" y="980" width="100" height="100" as="geometry" />
        </mxCell>
      </root>
    </mxGraphModel>
  </diagram>
</mxfile>
